<?xml version="1.0" standalone="no"?><!-- Generator: Gravit.io --><svg xmlns="http://www.w3.org/2000/svg" xmlns:xlink="http://www.w3.org/1999/xlink" style="isolation:isolate" viewBox="0 0 455 455" width="455" height="455"><defs><clipPath id="_clipPath_wsLNrzGQAgx1QzZlsQY9Lg0O6d349g0D"><rect width="455" height="455"/></clipPath></defs><g clip-path="url(#_clipPath_wsLNrzGQAgx1QzZlsQY9Lg0O6d349g0D)"><rect x="0" y="0" width="455" height="455" transform="matrix(1,0,0,1,0,0)" fill="rgb(233,82,128)"/><path d=" M 0 0 L 0 455 L 455 455 L 455 0 L 0 0 L 0 0 Z  M 301.004 125.217 L 265.44 125.217 C 258.396 125.217 251.287 132.497 251.287 137.913 L 251.287 174.177 L 300.934 174.177 C 298.935 201.984 294.831 227.412 294.831 227.412 L 251.033 227.412 L 251.033 385 L 185.767 385 L 185.767 227.395 L 153.996 227.395 L 153.996 174.366 L 185.767 174.366 L 185.767 131.01 C 185.767 123.082 184.161 70.001 252.639 70.001 L 301.005 70.001 L 301.005 125.217 L 301.004 125.217 Z " fill="rgb(255,255,255)"/></g></svg>