<?xml version="1.0" standalone="no"?><!-- Generator: Gravit.io --><svg xmlns="http://www.w3.org/2000/svg" xmlns:xlink="http://www.w3.org/1999/xlink" style="isolation:isolate" viewBox="0 0 455 455" width="455" height="455"><defs><clipPath id="_clipPath_YSRgTtDWLoGkxFQO8f1TEWsFrgOlXx7V"><rect width="455" height="455"/></clipPath></defs><g clip-path="url(#_clipPath_YSRgTtDWLoGkxFQO8f1TEWsFrgOlXx7V)"><rect x="0" y="0" width="455" height="455" transform="matrix(1,0,0,1,0,0)" fill="rgb(233,82,128)"/><g id="Group"><path d=" M 246.4 204.35 L 246.4 203.685 C 246.264 203.908 246.076 204.131 245.958 204.35 L 246.4 204.35 L 246.4 204.35 Z " fill="rgb(255,255,255)"/></g><path d=" M 0 0 L 0 455 L 455 455 L 455 0 L 0 0 Z  M 141.522 378.002 L 74.016 378.002 L 74.016 174.906 L 141.522 174.906 L 141.522 378.002 Z  M 107.769 147.186 L 107.323 147.186 C 84.678 147.186 70 131.585 70 112.085 C 70 92.157 85.107 76.998 108.211 76.998 C 131.32 76.998 145.521 92.157 145.963 112.085 C 145.963 131.585 131.32 147.186 107.769 147.186 Z  M 385 378.002 L 317.476 378.002 L 317.476 269.345 C 317.476 242.054 307.72 223.425 283.281 223.425 C 264.617 223.425 253.526 235.968 248.64 248.118 C 246.864 252.458 246.4 258.491 246.4 264.577 L 246.4 378.003 L 178.863 378.003 C 178.863 378.003 179.768 193.96 178.863 174.907 L 246.4 174.907 L 246.4 203.686 C 255.373 189.879 271.386 170.139 307.256 170.139 C 351.693 170.139 385 199.159 385 261.537 L 385 378.002 Z " fill="rgb(255,255,255)"/></g></svg>