<?xml version="1.0" standalone="no"?><!-- Generator: Gravit.io --><svg xmlns="http://www.w3.org/2000/svg" xmlns:xlink="http://www.w3.org/1999/xlink" style="isolation:isolate" viewBox="22.5 22.5 455 455" width="455" height="455"><g id="Group"><g id="Group"><g id="Group"><rect x="22.5" y="22.5" width="455" height="455" transform="matrix(1,0,0,1,0,0)" fill="none"/><rect x="22.5" y="22.5" width="455" height="455" transform="matrix(1,0,0,1,0,0)" fill="rgb(255,255,255)"/><path d=" M 250.221 250.332 L 250.221 249.668 C 250.085 249.89 249.897 250.114 249.779 250.332 L 250.221 250.332 L 250.221 250.332 Z " fill="rgb(255,255,255)"/><path d=" M 22.5 22.5 L 22.5 477.5 L 477.5 477.5 L 477.5 22.5 L 22.5 22.5 Z  M 164.022 400.502 L 96.516 400.502 L 96.516 197.406 L 164.022 197.406 L 164.022 400.502 Z  M 130.269 169.686 L 129.823 169.686 C 107.178 169.686 92.5 154.085 92.5 134.585 C 92.5 114.657 107.607 99.498 130.711 99.498 C 153.82 99.498 168.021 114.657 168.463 134.585 C 168.463 154.085 153.82 169.686 130.269 169.686 Z  M 407.5 400.502 L 339.976 400.502 L 339.976 291.845 C 339.976 264.554 330.22 245.925 305.781 245.925 C 287.117 245.925 276.026 258.468 271.14 270.618 C 269.364 274.958 268.9 280.991 268.9 287.077 L 268.9 400.503 L 201.363 400.503 C 201.363 400.503 202.268 216.46 201.363 197.407 L 268.9 197.407 L 268.9 226.186 C 277.873 212.379 293.886 192.639 329.756 192.639 C 374.193 192.639 407.5 221.659 407.5 284.037 L 407.5 400.502 Z " fill="rgb(233,82,128)"/></g></g></g></svg>