<?xml version="1.0" standalone="no"?><!-- Generator: Gravit.io --><svg xmlns="http://www.w3.org/2000/svg" xmlns:xlink="http://www.w3.org/1999/xlink" style="isolation:isolate" viewBox="22.5 22.5 455 455" width="455" height="455"><g id="Group"><rect x="22.5" y="22.5" width="455" height="455" transform="matrix(1,0,0,1,0,0)" fill="none"/><rect x="22.5" y="22.5" width="455" height="455" transform="matrix(1,0,0,1,0,0)" fill="rgb(255,255,255)"/><path d=" M 22.5 22.5 L 22.5 477.5 L 477.5 477.5 L 477.5 22.5 L 22.5 22.5 L 22.5 22.5 Z  M 323.504 147.717 L 287.94 147.717 C 280.896 147.717 273.787 154.997 273.787 160.413 L 273.787 196.677 L 323.434 196.677 C 321.435 224.484 317.331 249.912 317.331 249.912 L 273.533 249.912 L 273.533 407.5 L 208.267 407.5 L 208.267 249.895 L 176.496 249.895 L 176.496 196.866 L 208.267 196.866 L 208.267 153.51 C 208.267 145.582 206.661 92.501 275.139 92.501 L 323.505 92.501 L 323.505 147.717 L 323.504 147.717 Z " fill="rgb(233,82,128)"/></g></svg>