<?xml version="1.0" standalone="no"?><!-- Generator: Gravit.io --><svg xmlns="http://www.w3.org/2000/svg" xmlns:xlink="http://www.w3.org/1999/xlink" style="isolation:isolate" viewBox="22.5 22.5 455 455" width="455" height="455"><g id="Group"><g id="Group"><g id="Group"><g id="Group"><rect x="22.5" y="22.5" width="455" height="455" transform="matrix(1,0,0,1,0,0)" fill="none"/><rect x="22.5" y="22.5" width="455" height="455" transform="matrix(1,0,0,1,0,0)" fill="rgb(255,255,255)"/><path d=" M 22.5 22.5 L 22.5 477.5 L 477.5 477.5 L 477.5 22.5 L 22.5 22.5 L 22.5 22.5 Z  M 375.251 185.759 C 375.374 188.532 375.437 191.32 375.437 194.119 C 375.437 279.522 310.435 377.995 191.564 377.995 C 155.068 377.995 121.098 367.298 92.499 348.958 C 97.555 349.559 102.698 349.865 107.916 349.865 C 138.194 349.865 166.059 339.534 188.178 322.197 C 159.898 321.678 136.03 302.993 127.805 277.317 C 131.753 278.074 135.802 278.48 139.966 278.48 C 145.86 278.48 151.57 277.686 156.993 276.212 C 127.43 270.273 105.152 244.155 105.152 212.844 C 105.152 212.571 105.152 212.3 105.158 212.03 C 113.87 216.87 123.834 219.778 134.429 220.114 C 117.087 208.525 105.681 188.743 105.681 166.324 C 105.681 154.479 108.868 143.379 114.432 133.832 C 146.305 172.933 193.925 198.66 247.635 201.358 C 246.532 196.626 245.958 191.693 245.958 186.629 C 245.958 150.941 274.896 122.006 310.584 122.006 C 329.173 122.006 345.969 129.853 357.757 142.412 C 372.476 139.517 386.308 134.136 398.795 126.731 C 393.971 141.823 383.724 154.485 370.38 162.485 C 383.454 160.922 395.908 157.447 407.498 152.307 C 398.836 165.266 387.88 176.649 375.251 185.759 Z " fill="rgb(233,82,128)"/></g></g></g></g></svg>