<?xml version="1.0" standalone="no"?><!-- Generator: Gravit.io --><svg xmlns="http://www.w3.org/2000/svg" xmlns:xlink="http://www.w3.org/1999/xlink" style="isolation:isolate" viewBox="0 0 455 455" width="455" height="455"><defs><clipPath id="_clipPath_7zW3F9OVoLmgGaNFbH7NLoKNvqj7ZFBv"><rect width="455" height="455"/></clipPath></defs><g clip-path="url(#_clipPath_7zW3F9OVoLmgGaNFbH7NLoKNvqj7ZFBv)"><rect x="0" y="0" width="455" height="455" transform="matrix(1,0,0,1,0,0)" fill="rgb(233,82,128)"/><path d=" M 0 0 L 0 455 L 455 455 L 455 0 L 0 0 L 0 0 Z  M 352.751 163.259 C 352.874 166.032 352.937 168.82 352.937 171.619 C 352.937 257.022 287.935 355.495 169.064 355.495 C 132.568 355.495 98.598 344.798 69.999 326.458 C 75.055 327.059 80.198 327.365 85.416 327.365 C 115.694 327.365 143.559 317.034 165.678 299.697 C 137.398 299.178 113.53 280.493 105.305 254.817 C 109.253 255.574 113.302 255.98 117.466 255.98 C 123.36 255.98 129.07 255.186 134.493 253.712 C 104.93 247.773 82.652 221.655 82.652 190.344 C 82.652 190.071 82.652 189.8 82.658 189.53 C 91.37 194.37 101.334 197.278 111.929 197.614 C 94.587 186.025 83.181 166.243 83.181 143.824 C 83.181 131.979 86.368 120.879 91.932 111.332 C 123.805 150.433 171.425 176.16 225.135 178.858 C 224.032 174.126 223.458 169.193 223.458 164.129 C 223.458 128.441 252.396 99.506 288.084 99.506 C 306.673 99.506 323.469 107.353 335.257 119.912 C 349.976 117.017 363.808 111.636 376.295 104.231 C 371.471 119.323 361.224 131.985 347.88 139.985 C 360.954 138.422 373.408 134.947 384.998 129.807 C 376.336 142.766 365.38 154.149 352.751 163.259 Z " fill="rgb(255,255,255)"/></g></svg>